<?xml version="1.0" encoding="UTF-8"?>
<svg version="1.1" viewBox="0 0 68 68" xmlns="http://www.w3.org/2000/svg" xmlns:xlink="http://www.w3.org/1999/xlink">
<title>Path</title>
<defs>
<circle id="a" cx="34" cy="34" r="34"/>
</defs>
<g fill="none" fill-rule="evenodd">
<g transform="translate(-380 -110)">
<g transform="translate(380 110)">
<mask id="b" fill="white">
<use xlink:href="#a"/>
</mask>
<use fill="#E2E2E6" xlink:href="#a"/>
<path d="m57.202 51.014c-1.4207-3.1416-10.103-5.8647-10.103-5.8647-3.2408-1.1355-4.2289-2.2705-4.5307-2.8505-0.033146-0.071077-0.059434-0.13306-0.082864-0.18821v-0.02445s-0.020002-0.069371-0.050861-0.18025c-0.12458-0.44921-0.43432-1.5921-0.43432-1.8747 0 0-0.016573 0.092116-0.053147 0.25133-0.022859-0.27862-0.029717-0.5743-0.012001-0.89159 0 0-0.026859 0.029-0.077149 0.080744 1.0761-1.3715 1.9504-2.9409 2.5305-4.5376 0.98751-0.982 1.4927-3.3713 1.4927-3.3713 0.65605-1.8281 0.46404-2.7623 0.1623-3.2337 0.092579-0.27692 1.6659-5.1238-0.55719-8.8608 0 0-0.79035-3.5345-4.973-5.1056-3.8672-2.3558-9.6299-0.9422-9.6299-0.9422-7.024 1.1782-8.5281 9.3998-8.5281 9.3998-0.41889 3.754 0.59205 6.1024 0.63434 6.1985-0.36003 0.88875 0.2926 3.2127 0.2926 3.2127 0.22402 1.4181 0.92122 1.8514 1.1247 1.9498 0.48861 1.7621 1.3327 3.4782 2.3956 4.9692-0.0074292-0.007392-0.014858-0.014215-0.022288-0.022176 0 0 0.11715 0.57715 0.0091437 1.384-0.01543-0.08245-0.023431-0.13135-0.023431-0.13135 0 0.33094-0.40232 1.5347-0.45375 1.6888-0.0040003 0.0090979-0.0080007 0.01649-0.012001 0.025019-0.32688 0.43272-0.65148 0.8262-0.97322 1.1867-2.6174 2.0112-8.9065 3.911-8.9065 3.911-2.7368 1.0468-3.8946 2.6173-3.8946 2.6173-4.0518 5.9688-4.5255 25.442-4.5255 25.442 0.052004 3.037 1.3681 3.3514 1.3681 3.3514 9.3145 4.1361 24.136 4.3795 24.136 4.3795 14.997 0.31501 25.698-3.7512 25.698-3.7512 1.5847-0.99508 1.631-1.7798 1.631-1.7798 1.1047-9.5295-3.6312-26.437-3.6312-26.437z" fill="#C0C0C8" fill-rule="nonzero" mask="url(#b)"/>
</g>
</g>
</g>
</svg>
