<?xml version="1.0" encoding="utf-8"?>
<svg width="25px" height="21px" viewBox="0 0 25 21" version="1.1" xmlns:xlink="http://www.w3.org/1999/xlink" xmlns="http://www.w3.org/2000/svg">
  <g id="hide" transform="translate(0.5 0.5)">
    <path d="M21.3388 0.258983C20.9959 -0.0887722 20.4376 -0.0838743 20.0898 0.258983L16.9551 3.39368C13.071 1.63041 8.92737 2.06143 4.97472 4.64266C2.03104 6.56266 0.243288 8.97735 0.169819 9.08021C-0.065283 9.40347 -0.055487 9.84429 0.194309 10.1578C1.86941 12.2149 3.62288 13.8165 5.41553 14.9333L2.65798 17.6908C2.31513 18.0337 2.31513 18.592 2.65798 18.9398C2.82941 19.1112 3.05472 19.1994 3.28002 19.1994C3.50533 19.1994 3.73064 19.1112 3.90206 18.9398L21.3388 1.50796C21.6817 1.16511 21.6817 0.606738 21.3388 0.258983ZM9.8188 10.53C9.69145 10.241 9.62778 9.92756 9.62778 9.59939C9.62778 8.96755 9.87268 8.37 10.3233 7.91939C11.0286 7.21409 12.0719 7.04755 12.9339 7.4149L9.8188 10.53ZM14.2368 6.11694C12.6351 5.08837 10.4751 5.27449 9.07921 6.67041C8.29553 7.45408 7.86941 8.49245 7.86941 9.59449C7.86941 10.3978 8.09962 11.1667 8.52574 11.828L6.70859 13.6451C5.11676 12.7243 3.54941 11.3627 2.02615 9.5847C2.67757 8.82062 4.0539 7.34633 5.93962 6.11694C9.20166 3.99123 12.449 3.53082 15.6131 4.74062L14.2368 6.11694Z" transform="translate(-6.837518E-06 0.0011477639)" id="Shape" fill="#D6D9DC" fill-rule="evenodd" stroke="none" />
    <path d="M14.9586 3.92319C13.7488 2.43421 12.4949 1.18033 11.2214 0.186049C10.8345 -0.112727 10.281 -0.0441551 9.97734 0.337886C9.67857 0.719927 9.74714 1.2734 10.1292 1.57707C11.1382 2.36564 12.1471 3.34523 13.1267 4.49136C12.5488 5.16727 11.4222 6.38197 9.89408 7.4938C6.95041 9.63421 3.97734 10.4081 1.06306 9.79095C0.587956 9.68809 0.117752 9.99666 0.0197929 10.4718C-0.0830643 10.9469 0.225507 11.4171 0.700609 11.515C1.45979 11.6767 2.22387 11.755 2.99285 11.755C4.14877 11.755 5.31449 11.5738 6.4753 11.2114C7.99857 10.7363 9.51204 9.95258 10.9765 8.88482C13.4451 7.07748 14.9194 5.08401 14.9831 5.00074C15.2182 4.67748 15.2084 4.23666 14.9586 3.92319Z" transform="translate(8.848795 5.1189795)" id="Path" fill="#D6D9DC" fill-rule="evenodd" stroke="none" />
  </g>
</svg>