<?xml version="1.0" encoding="utf-8"?>
<svg width="26px" height="17px" viewBox="0 0 26 17" version="1.1" xmlns:xlink="http://www.w3.org/1999/xlink" xmlns="http://www.w3.org/2000/svg">
  <g id="eye" transform="translate(1 1)">
    <path d="M23.8025 6.72C20.178 2.26286 16.2645 0 12.16 0C10.5339 0 8.88819 0.362449 7.26206 1.07265C5.9837 1.63592 4.71513 2.41469 3.49553 3.38939C1.43349 5.04 0.218799 6.68571 0.169819 6.75429C-0.065283 7.07755 -0.055487 7.51837 0.194309 7.83184C3.8139 12.2939 7.73227 14.5518 11.8368 14.5518C13.4629 14.5518 15.1086 14.1894 16.7347 13.4792C18.0131 12.9159 19.2817 12.1371 20.5012 11.1624C22.5633 9.51184 23.778 7.86612 23.827 7.79755C24.0621 7.47429 24.0523 7.03347 23.8025 6.72ZM19.36 9.81551C17.6555 11.1722 14.9715 12.7886 11.8368 12.7886C8.45227 12.7886 5.15104 10.9322 2.01635 7.26857C2.51104 6.68571 3.41717 5.71102 4.63186 4.74122C6.33635 3.38449 9.02043 1.76816 12.1551 1.76816C15.5396 1.76816 18.8408 3.62449 21.9755 7.28816C21.4808 7.87102 20.5747 8.85061 19.36 9.81551Z" transform="translate(-6.837518E-06 0.020424489)" id="Shape" fill="#989FA7" fill-rule="evenodd" stroke="none" />
    <path d="M7.38612 3.25225C6.90123 3.25225 6.50449 3.64898 6.50449 4.13388C6.50449 5.44163 5.44163 6.50449 4.13388 6.50449C2.82612 6.50449 1.76327 5.44163 1.76327 4.13388C1.76327 2.82612 2.82612 1.76327 4.13388 1.76327C4.61878 1.76327 5.01551 1.36653 5.01551 0.881633C5.01551 0.396735 4.61878 0 4.13388 0C1.85143 0 0 1.85633 0 4.13388C0 6.41143 1.85143 8.26776 4.13388 8.26776C6.41633 8.26776 8.26776 6.41143 8.26776 4.13388C8.26776 3.64898 7.87102 3.25225 7.38612 3.25225Z" transform="translate(7.859608 3.1649144)" id="Path" fill="#989FA7" fill-rule="evenodd" stroke="none" />
  </g>
</svg>